<svg width="40" height="40" viewBox="0 0 40 40" fill="none" xmlns="http://www.w3.org/2000/svg">
<path d="M12 26C11.7167 26 11.4793 25.904 11.288 25.712C11.0967 25.52 11.0007 25.2827 11 25C10.9993 24.7173 11.0953 24.48 11.288 24.288C11.4807 24.096 11.718 24 12 24H28C28.2833 24 28.521 24.096 28.713 24.288C28.905 24.48 29.0007 24.7173 29 25C28.9993 25.2827 28.9033 25.5203 28.712 25.713C28.5207 25.9057 28.2833 26.0013 28 26H12ZM12 21C11.7167 21 11.4793 20.904 11.288 20.712C11.0967 20.52 11.0007 20.2827 11 20C10.9993 19.7173 11.0953 19.48 11.288 19.288C11.4807 19.096 11.718 19 12 19H28C28.2833 19 28.521 19.096 28.713 19.288C28.905 19.48 29.0007 19.7173 29 20C28.9993 20.2827 28.9033 20.5203 28.712 20.713C28.5207 20.9057 28.2833 21.0013 28 21H12ZM12 16C11.7167 16 11.4793 15.904 11.288 15.712C11.0967 15.52 11.0007 15.2827 11 15C10.9993 14.7173 11.0953 14.48 11.288 14.288C11.4807 14.096 11.718 14 12 14H28C28.2833 14 28.521 14.096 28.713 14.288C28.905 14.48 29.0007 14.7173 29 15C28.9993 15.2827 28.9033 15.5203 28.712 15.713C28.5207 15.9057 28.2833 16.0013 28 16H12Z" fill="black"/>
</svg>
